<mxfile host="app.diagrams.net" agent="Mozilla/5.0 (Windows NT 10.0; Win64; x64) AppleWebKit/537.36 (KHTML, like Gecko) Chrome/136.0.0.0 Safari/537.36" version="24.7.17">
  <diagram id="C5RBs43oDa-KdzZeNtuy" name="Page-1">
    <mxGraphModel dx="1032" dy="1624" grid="1" gridSize="10" guides="1" tooltips="1" connect="1" arrows="1" fold="1" page="1" pageScale="1" pageWidth="827" pageHeight="1169" math="0" shadow="0">
      <root>
        <mxCell id="WIyWlLk6GJQsqaUBKTNV-0" />
        <mxCell id="WIyWlLk6GJQsqaUBKTNV-1" parent="WIyWlLk6GJQsqaUBKTNV-0" />
        <mxCell id="zkfFHV4jXpPFQw0GAbJ--0" value="Entity(Abstract)" style="swimlane;fontStyle=2;align=center;verticalAlign=top;childLayout=stackLayout;horizontal=1;startSize=20;horizontalStack=0;resizeParent=1;resizeLast=0;collapsible=1;marginBottom=0;rounded=0;shadow=0;strokeWidth=1;" parent="WIyWlLk6GJQsqaUBKTNV-1" vertex="1">
          <mxGeometry x="240" y="-590" width="160" height="550" as="geometry">
            <mxRectangle x="220" y="120" width="160" height="26" as="alternateBounds" />
          </mxGeometry>
        </mxCell>
        <mxCell id="zkfFHV4jXpPFQw0GAbJ--1" value="# String; Name    " style="text;align=left;verticalAlign=top;spacingLeft=4;spacingRight=4;overflow=hidden;rotatable=0;points=[[0,0.5],[1,0.5]];portConstraint=eastwest;" parent="zkfFHV4jXpPFQw0GAbJ--0" vertex="1">
          <mxGeometry y="20" width="160" height="26" as="geometry" />
        </mxCell>
        <mxCell id="zkfFHV4jXpPFQw0GAbJ--2" value="# int; Happiness" style="text;align=left;verticalAlign=top;spacingLeft=4;spacingRight=4;overflow=hidden;rotatable=0;points=[[0,0.5],[1,0.5]];portConstraint=eastwest;rounded=0;shadow=0;html=0;" parent="zkfFHV4jXpPFQw0GAbJ--0" vertex="1">
          <mxGeometry y="46" width="160" height="26" as="geometry" />
        </mxCell>
        <mxCell id="dFLa48cNLC9PexIyje-t-1" value="# int; Hunger" style="text;align=left;verticalAlign=top;spacingLeft=4;spacingRight=4;overflow=hidden;rotatable=0;points=[[0,0.5],[1,0.5]];portConstraint=eastwest;rounded=0;shadow=0;html=0;" vertex="1" parent="zkfFHV4jXpPFQw0GAbJ--0">
          <mxGeometry y="72" width="160" height="26" as="geometry" />
        </mxCell>
        <mxCell id="dFLa48cNLC9PexIyje-t-2" value="# int; Energy" style="text;align=left;verticalAlign=top;spacingLeft=4;spacingRight=4;overflow=hidden;rotatable=0;points=[[0,0.5],[1,0.5]];portConstraint=eastwest;rounded=0;shadow=0;html=0;" vertex="1" parent="zkfFHV4jXpPFQw0GAbJ--0">
          <mxGeometry y="98" width="160" height="26" as="geometry" />
        </mxCell>
        <mxCell id="dFLa48cNLC9PexIyje-t-3" value="# String; Message" style="text;align=left;verticalAlign=top;spacingLeft=4;spacingRight=4;overflow=hidden;rotatable=0;points=[[0,0.5],[1,0.5]];portConstraint=eastwest;rounded=0;shadow=0;html=0;" vertex="1" parent="zkfFHV4jXpPFQw0GAbJ--0">
          <mxGeometry y="124" width="160" height="26" as="geometry" />
        </mxCell>
        <mxCell id="zkfFHV4jXpPFQw0GAbJ--4" value="" style="line;html=1;strokeWidth=1;align=left;verticalAlign=middle;spacingTop=-1;spacingLeft=3;spacingRight=3;rotatable=0;labelPosition=right;points=[];portConstraint=eastwest;" parent="zkfFHV4jXpPFQw0GAbJ--0" vertex="1">
          <mxGeometry y="150" width="160" height="26" as="geometry" />
        </mxCell>
        <mxCell id="dFLa48cNLC9PexIyje-t-4" value="+Public Pet;         " style="text;align=left;verticalAlign=top;spacingLeft=4;spacingRight=4;overflow=hidden;rotatable=0;points=[[0,0.5],[1,0.5]];portConstraint=eastwest;rounded=0;shadow=0;html=0;" vertex="1" parent="zkfFHV4jXpPFQw0GAbJ--0">
          <mxGeometry y="176" width="160" height="26" as="geometry" />
        </mxCell>
        <mxCell id="dFLa48cNLC9PexIyje-t-5" value="+ String getName; " style="text;align=left;verticalAlign=top;spacingLeft=4;spacingRight=4;overflow=hidden;rotatable=0;points=[[0,0.5],[1,0.5]];portConstraint=eastwest;rounded=0;shadow=0;html=0;" vertex="1" parent="zkfFHV4jXpPFQw0GAbJ--0">
          <mxGeometry y="202" width="160" height="26" as="geometry" />
        </mxCell>
        <mxCell id="dFLa48cNLC9PexIyje-t-6" value="+ int getHappiness; " style="text;align=left;verticalAlign=top;spacingLeft=4;spacingRight=4;overflow=hidden;rotatable=0;points=[[0,0.5],[1,0.5]];portConstraint=eastwest;rounded=0;shadow=0;html=0;" vertex="1" parent="zkfFHV4jXpPFQw0GAbJ--0">
          <mxGeometry y="228" width="160" height="28" as="geometry" />
        </mxCell>
        <mxCell id="dFLa48cNLC9PexIyje-t-7" value="+ int getHunger;" style="text;align=left;verticalAlign=top;spacingLeft=4;spacingRight=4;overflow=hidden;rotatable=0;points=[[0,0.5],[1,0.5]];portConstraint=eastwest;rounded=0;shadow=0;html=0;" vertex="1" parent="zkfFHV4jXpPFQw0GAbJ--0">
          <mxGeometry y="256" width="160" height="28" as="geometry" />
        </mxCell>
        <mxCell id="dFLa48cNLC9PexIyje-t-8" value="+ int getEnergy;" style="text;align=left;verticalAlign=top;spacingLeft=4;spacingRight=4;overflow=hidden;rotatable=0;points=[[0,0.5],[1,0.5]];portConstraint=eastwest;rounded=0;shadow=0;html=0;" vertex="1" parent="zkfFHV4jXpPFQw0GAbJ--0">
          <mxGeometry y="284" width="160" height="32" as="geometry" />
        </mxCell>
        <mxCell id="dFLa48cNLC9PexIyje-t-9" value="+ String getMessage;" style="text;align=left;verticalAlign=top;spacingLeft=4;spacingRight=4;overflow=hidden;rotatable=0;points=[[0,0.5],[1,0.5]];portConstraint=eastwest;rounded=0;shadow=0;html=0;" vertex="1" parent="zkfFHV4jXpPFQw0GAbJ--0">
          <mxGeometry y="316" width="160" height="24" as="geometry" />
        </mxCell>
        <mxCell id="dFLa48cNLC9PexIyje-t-10" value="+ void setName;" style="text;align=left;verticalAlign=top;spacingLeft=4;spacingRight=4;overflow=hidden;rotatable=0;points=[[0,0.5],[1,0.5]];portConstraint=eastwest;rounded=0;shadow=0;html=0;" vertex="1" parent="zkfFHV4jXpPFQw0GAbJ--0">
          <mxGeometry y="340" width="160" height="28" as="geometry" />
        </mxCell>
        <mxCell id="dFLa48cNLC9PexIyje-t-11" value="+ void setHappiness;" style="text;align=left;verticalAlign=top;spacingLeft=4;spacingRight=4;overflow=hidden;rotatable=0;points=[[0,0.5],[1,0.5]];portConstraint=eastwest;rounded=0;shadow=0;html=0;" vertex="1" parent="zkfFHV4jXpPFQw0GAbJ--0">
          <mxGeometry y="368" width="160" height="28" as="geometry" />
        </mxCell>
        <mxCell id="dFLa48cNLC9PexIyje-t-27" value="+ void setHunger;" style="text;align=left;verticalAlign=top;spacingLeft=4;spacingRight=4;overflow=hidden;rotatable=0;points=[[0,0.5],[1,0.5]];portConstraint=eastwest;rounded=0;shadow=0;html=0;" vertex="1" parent="zkfFHV4jXpPFQw0GAbJ--0">
          <mxGeometry y="396" width="160" height="28" as="geometry" />
        </mxCell>
        <mxCell id="dFLa48cNLC9PexIyje-t-28" value="+ void setEnergy;" style="text;align=left;verticalAlign=top;spacingLeft=4;spacingRight=4;overflow=hidden;rotatable=0;points=[[0,0.5],[1,0.5]];portConstraint=eastwest;rounded=0;shadow=0;html=0;" vertex="1" parent="zkfFHV4jXpPFQw0GAbJ--0">
          <mxGeometry y="424" width="160" height="28" as="geometry" />
        </mxCell>
        <mxCell id="dFLa48cNLC9PexIyje-t-29" value="+ play();" style="text;align=left;verticalAlign=top;spacingLeft=4;spacingRight=4;overflow=hidden;rotatable=0;points=[[0,0.5],[1,0.5]];portConstraint=eastwest;rounded=0;shadow=0;html=0;" vertex="1" parent="zkfFHV4jXpPFQw0GAbJ--0">
          <mxGeometry y="452" width="160" height="28" as="geometry" />
        </mxCell>
        <mxCell id="dFLa48cNLC9PexIyje-t-30" value="+ feed();" style="text;align=left;verticalAlign=top;spacingLeft=4;spacingRight=4;overflow=hidden;rotatable=0;points=[[0,0.5],[1,0.5]];portConstraint=eastwest;rounded=0;shadow=0;html=0;" vertex="1" parent="zkfFHV4jXpPFQw0GAbJ--0">
          <mxGeometry y="480" width="160" height="28" as="geometry" />
        </mxCell>
        <mxCell id="dFLa48cNLC9PexIyje-t-31" value="+ sleep();" style="text;align=left;verticalAlign=top;spacingLeft=4;spacingRight=4;overflow=hidden;rotatable=0;points=[[0,0.5],[1,0.5]];portConstraint=eastwest;rounded=0;shadow=0;html=0;" vertex="1" parent="zkfFHV4jXpPFQw0GAbJ--0">
          <mxGeometry y="508" width="160" height="28" as="geometry" />
        </mxCell>
        <mxCell id="dFLa48cNLC9PexIyje-t-38" value="Pet" style="swimlane;fontStyle=1;align=center;verticalAlign=top;childLayout=stackLayout;horizontal=1;startSize=26;horizontalStack=0;resizeParent=1;resizeParentMax=0;resizeLast=0;collapsible=1;marginBottom=0;whiteSpace=wrap;html=1;" vertex="1" parent="WIyWlLk6GJQsqaUBKTNV-1">
          <mxGeometry x="240" y="100" width="160" height="132" as="geometry" />
        </mxCell>
        <mxCell id="dFLa48cNLC9PexIyje-t-39" value="+ Pet(name);" style="text;strokeColor=none;fillColor=none;align=left;verticalAlign=top;spacingLeft=4;spacingRight=4;overflow=hidden;rotatable=0;points=[[0,0.5],[1,0.5]];portConstraint=eastwest;whiteSpace=wrap;html=1;" vertex="1" parent="dFLa48cNLC9PexIyje-t-38">
          <mxGeometry y="26" width="160" height="26" as="geometry" />
        </mxCell>
        <mxCell id="dFLa48cNLC9PexIyje-t-42" value="+ play();&amp;nbsp;" style="text;strokeColor=none;fillColor=none;align=left;verticalAlign=top;spacingLeft=4;spacingRight=4;overflow=hidden;rotatable=0;points=[[0,0.5],[1,0.5]];portConstraint=eastwest;whiteSpace=wrap;html=1;" vertex="1" parent="dFLa48cNLC9PexIyje-t-38">
          <mxGeometry y="52" width="160" height="26" as="geometry" />
        </mxCell>
        <mxCell id="dFLa48cNLC9PexIyje-t-47" value="+ sleep();" style="text;align=left;verticalAlign=top;spacingLeft=4;spacingRight=4;overflow=hidden;rotatable=0;points=[[0,0.5],[1,0.5]];portConstraint=eastwest;rounded=0;shadow=0;html=0;" vertex="1" parent="dFLa48cNLC9PexIyje-t-38">
          <mxGeometry y="78" width="160" height="28" as="geometry" />
        </mxCell>
        <mxCell id="dFLa48cNLC9PexIyje-t-43" value="+ feed();" style="text;strokeColor=none;fillColor=none;align=left;verticalAlign=top;spacingLeft=4;spacingRight=4;overflow=hidden;rotatable=0;points=[[0,0.5],[1,0.5]];portConstraint=eastwest;whiteSpace=wrap;html=1;" vertex="1" parent="dFLa48cNLC9PexIyje-t-38">
          <mxGeometry y="106" width="160" height="26" as="geometry" />
        </mxCell>
        <mxCell id="dFLa48cNLC9PexIyje-t-54" value="Game" style="swimlane;fontStyle=1;align=center;verticalAlign=top;childLayout=stackLayout;horizontal=1;startSize=26;horizontalStack=0;resizeParent=1;resizeParentMax=0;resizeLast=0;collapsible=1;marginBottom=0;whiteSpace=wrap;html=1;" vertex="1" parent="WIyWlLk6GJQsqaUBKTNV-1">
          <mxGeometry x="234" y="390" width="180" height="360" as="geometry" />
        </mxCell>
        <mxCell id="dFLa48cNLC9PexIyje-t-55" value="&lt;div&gt;- pnlMain: JPanel&amp;nbsp;&amp;nbsp;&lt;/div&gt;&lt;div&gt;- tfName: JTextField&amp;nbsp;&amp;nbsp;&lt;/div&gt;&lt;div&gt;- pbHappybar: JProgressBar&amp;nbsp;&amp;nbsp;&lt;/div&gt;&lt;div&gt;- pbHungerbar: JProgressBar&amp;nbsp;&amp;nbsp;&lt;/div&gt;&lt;div&gt;- pbEnergyBar: JProgressBar&amp;nbsp;&amp;nbsp;&lt;/div&gt;&lt;div&gt;- feedButton: JButton&amp;nbsp;&amp;nbsp;&lt;/div&gt;&lt;div&gt;- playButton: JButton&amp;nbsp;&amp;nbsp;&lt;/div&gt;&lt;div&gt;- restButton: JButton&amp;nbsp;&amp;nbsp;&lt;/div&gt;&lt;div&gt;- Name: JButton&amp;nbsp;&amp;nbsp;&lt;/div&gt;&lt;div&gt;- taDialog: JTextArea&amp;nbsp;&amp;nbsp;&lt;/div&gt;&lt;div&gt;- btnSave: JButton&amp;nbsp;&amp;nbsp;&lt;/div&gt;&lt;div&gt;- btnLoad: JButton&amp;nbsp;&amp;nbsp;&lt;/div&gt;&lt;div&gt;- pet: Entity&amp;nbsp;&amp;nbsp;&lt;/div&gt;" style="text;strokeColor=none;fillColor=none;align=left;verticalAlign=top;spacingLeft=4;spacingRight=4;overflow=hidden;rotatable=0;points=[[0,0.5],[1,0.5]];portConstraint=eastwest;whiteSpace=wrap;html=1;" vertex="1" parent="dFLa48cNLC9PexIyje-t-54">
          <mxGeometry y="26" width="180" height="194" as="geometry" />
        </mxCell>
        <mxCell id="dFLa48cNLC9PexIyje-t-56" value="" style="line;strokeWidth=1;fillColor=none;align=left;verticalAlign=middle;spacingTop=-1;spacingLeft=3;spacingRight=3;rotatable=0;labelPosition=right;points=[];portConstraint=eastwest;strokeColor=inherit;" vertex="1" parent="dFLa48cNLC9PexIyje-t-54">
          <mxGeometry y="220" width="180" height="20" as="geometry" />
        </mxCell>
        <mxCell id="dFLa48cNLC9PexIyje-t-61" value="+ Game();" style="text;strokeColor=none;fillColor=none;align=left;verticalAlign=top;spacingLeft=4;spacingRight=4;overflow=hidden;rotatable=0;points=[[0,0.5],[1,0.5]];portConstraint=eastwest;whiteSpace=wrap;html=1;" vertex="1" parent="dFLa48cNLC9PexIyje-t-54">
          <mxGeometry y="240" width="180" height="30" as="geometry" />
        </mxCell>
        <mxCell id="dFLa48cNLC9PexIyje-t-62" value="+ void setName():" style="text;strokeColor=none;fillColor=none;align=left;verticalAlign=top;spacingLeft=4;spacingRight=4;overflow=hidden;rotatable=0;points=[[0,0.5],[1,0.5]];portConstraint=eastwest;whiteSpace=wrap;html=1;" vertex="1" parent="dFLa48cNLC9PexIyje-t-54">
          <mxGeometry y="270" width="180" height="30" as="geometry" />
        </mxCell>
        <mxCell id="dFLa48cNLC9PexIyje-t-67" value="+ update():" style="text;strokeColor=none;fillColor=none;align=left;verticalAlign=top;spacingLeft=4;spacingRight=4;overflow=hidden;rotatable=0;points=[[0,0.5],[1,0.5]];portConstraint=eastwest;whiteSpace=wrap;html=1;" vertex="1" parent="dFLa48cNLC9PexIyje-t-54">
          <mxGeometry y="300" width="180" height="30" as="geometry" />
        </mxCell>
        <mxCell id="dFLa48cNLC9PexIyje-t-68" value="+ Main(string[], args);" style="text;strokeColor=none;fillColor=none;align=left;verticalAlign=top;spacingLeft=4;spacingRight=4;overflow=hidden;rotatable=0;points=[[0,0.5],[1,0.5]];portConstraint=eastwest;whiteSpace=wrap;html=1;" vertex="1" parent="dFLa48cNLC9PexIyje-t-54">
          <mxGeometry y="330" width="180" height="30" as="geometry" />
        </mxCell>
        <mxCell id="dFLa48cNLC9PexIyje-t-59" value="" style="endArrow=block;endSize=16;endFill=0;html=1;rounded=0;entryX=0.51;entryY=0.999;entryDx=0;entryDy=0;entryPerimeter=0;" edge="1" parent="WIyWlLk6GJQsqaUBKTNV-1" source="dFLa48cNLC9PexIyje-t-54" target="dFLa48cNLC9PexIyje-t-43">
          <mxGeometry x="-1" y="86" width="160" relative="1" as="geometry">
            <mxPoint x="130" y="760" as="sourcePoint" />
            <mxPoint x="290" y="760" as="targetPoint" />
            <mxPoint x="-50" y="16" as="offset" />
          </mxGeometry>
        </mxCell>
        <mxCell id="dFLa48cNLC9PexIyje-t-63" value="" style="endArrow=block;endFill=1;html=1;edgeStyle=orthogonalEdgeStyle;align=left;verticalAlign=top;rounded=0;entryX=0.5;entryY=1;entryDx=0;entryDy=0;exitX=0.5;exitY=0;exitDx=0;exitDy=0;" edge="1" parent="WIyWlLk6GJQsqaUBKTNV-1" source="dFLa48cNLC9PexIyje-t-38" target="zkfFHV4jXpPFQw0GAbJ--0">
          <mxGeometry x="-0.875" y="-80" relative="1" as="geometry">
            <mxPoint x="90" y="330" as="sourcePoint" />
            <mxPoint x="250" y="330" as="targetPoint" />
            <mxPoint as="offset" />
          </mxGeometry>
        </mxCell>
        <mxCell id="dFLa48cNLC9PexIyje-t-72" value="Use" style="endArrow=open;endSize=12;dashed=1;html=1;rounded=0;exitX=0.47;exitY=1.122;exitDx=0;exitDy=0;exitPerimeter=0;" edge="1" parent="WIyWlLk6GJQsqaUBKTNV-1" source="dFLa48cNLC9PexIyje-t-68" target="dFLa48cNLC9PexIyje-t-73">
          <mxGeometry width="160" relative="1" as="geometry">
            <mxPoint x="244" y="780" as="sourcePoint" />
            <mxPoint x="320" y="880" as="targetPoint" />
          </mxGeometry>
        </mxCell>
        <mxCell id="dFLa48cNLC9PexIyje-t-73" value="FileHandler" style="swimlane;fontStyle=0;childLayout=stackLayout;horizontal=1;startSize=26;fillColor=none;horizontalStack=0;resizeParent=1;resizeParentMax=0;resizeLast=0;collapsible=1;marginBottom=0;whiteSpace=wrap;html=1;" vertex="1" parent="WIyWlLk6GJQsqaUBKTNV-1">
          <mxGeometry x="250" y="825" width="140" height="78" as="geometry" />
        </mxCell>
        <mxCell id="dFLa48cNLC9PexIyje-t-74" value="+ saveFile(pet);" style="text;strokeColor=none;fillColor=none;align=left;verticalAlign=top;spacingLeft=4;spacingRight=4;overflow=hidden;rotatable=0;points=[[0,0.5],[1,0.5]];portConstraint=eastwest;whiteSpace=wrap;html=1;" vertex="1" parent="dFLa48cNLC9PexIyje-t-73">
          <mxGeometry y="26" width="140" height="26" as="geometry" />
        </mxCell>
        <mxCell id="dFLa48cNLC9PexIyje-t-75" value="+ loadFile();" style="text;strokeColor=none;fillColor=none;align=left;verticalAlign=top;spacingLeft=4;spacingRight=4;overflow=hidden;rotatable=0;points=[[0,0.5],[1,0.5]];portConstraint=eastwest;whiteSpace=wrap;html=1;" vertex="1" parent="dFLa48cNLC9PexIyje-t-73">
          <mxGeometry y="52" width="140" height="26" as="geometry" />
        </mxCell>
      </root>
    </mxGraphModel>
  </diagram>
</mxfile>
